<svg xmlns="http://www.w3.org/2000/svg" width="600" height="400" viewBox="0 0 600 400"><rect width="100%" height="100%" fill="#000000"/><path fill="#ffffff" d="M135.19 168.225v52.06h-9.72v-52.06zm21.35 0v52.06h-9.72v-52.06zm60.77 0h7.31v52.06h-8.53v-33.62q0-2.02.21-4.36l-15.73 29.56q-1.12 2.12-3.42 2.12h-1.37q-2.3 0-3.42-2.12l-15.91-29.67q.11 1.19.18 2.34t.07 2.13v33.62h-8.53v-52.06h7.31q.65 0 1.11.04.47.04.85.18t.68.47q.31.32.6.86l15.59 28.91q.61 1.15 1.13 2.38.52 1.22 1.03 2.52.5-1.34 1.04-2.58t1.15-2.39l15.37-28.84q.29-.54.62-.86.32-.33.7-.47t.84-.18q.47-.04 1.12-.04m49.03 4.9-2.41 4.57q-.43.76-.92 1.1-.48.34-1.2.34-.76 0-1.64-.56-.88-.55-2.11-1.24-1.22-.68-2.86-1.24t-3.87-.56q-2.02 0-3.53.49-1.51.48-2.54 1.35-1.02.86-1.53 2.07-.5 1.2-.5 2.64 0 1.84 1.03 3.06 1.02 1.23 2.71 2.09 1.7.87 3.86 1.55t4.42 1.46q2.27.77 4.43 1.8 2.16 1.02 3.85 2.59 1.7 1.57 2.72 3.83 1.03 2.27 1.03 5.51 0 3.53-1.21 6.61-1.2 3.08-3.53 5.36-2.32 2.29-5.67 3.6-3.34 1.32-7.66 1.32-2.49 0-4.9-.49t-4.63-1.39q-2.21-.9-4.15-2.16-1.95-1.26-3.46-2.8l2.84-4.65q.36-.5.94-.84.58-.35 1.22-.35.9 0 1.95.74 1.04.74 2.48 1.64t3.37 1.64q1.92.74 4.62.74 4.14 0 6.41-1.97 2.27-1.96 2.27-5.63 0-2.05-1.03-3.35-1.02-1.29-2.71-2.18-1.7-.88-3.86-1.49t-4.39-1.33-4.39-1.73-3.85-2.63-2.72-4.05-1.03-5.99q0-2.85 1.14-5.55 1.13-2.7 3.29-4.78 2.16-2.09 5.33-3.35t7.27-1.26q4.61 0 8.5 1.44t6.62 4.03m7.67 29.12v-7.41h18.65v7.41zm38.23 10.48h9.79q2.7 0 4.54-.65t2.93-1.73q1.1-1.08 1.59-2.52.48-1.44.48-3.06 0-1.69-.54-3.04t-1.69-2.3q-1.15-.96-2.97-1.46t-4.37-.5h-9.76zm8.25-37.01h-8.25v15.05h7.71q4.96 0 7.5-1.8t2.54-5.72q0-4.07-2.3-5.8-2.31-1.73-7.2-1.73m-17.93-7.49h17.93q5.11 0 8.74.98 3.64.97 5.96 2.77t3.4 4.35q1.08 2.56 1.08 5.76 0 1.84-.54 3.51-.54 1.68-1.67 3.14-1.13 1.45-2.88 2.64t-4.16 2.02q10.73 2.41 10.73 11.59 0 3.31-1.26 6.12t-3.67 4.84q-2.41 2.04-5.94 3.19t-8.07 1.15h-19.65zm72.43 15.12h7.13l-20.13 47.09q-.39.94-1.02 1.42-.63.49-1.93.49h-6.62l6.91-14.83-14.94-34.17h7.81q1.05 0 1.64.51.59.5.88 1.15l7.85 19.15q.4.97.67 1.95.27.97.52 1.98.32-1.01.65-2 .32-.99.72-1.96l7.41-19.12q.29-.72.96-1.19.66-.47 1.49-.47m11.27 18.9v-7.41h18.65v7.41zm39.49-1.62h16.56l-6.34-17.31q-.46-1.15-.97-2.74-.5-1.58-1.01-3.42-.46 1.84-.97 3.44-.5 1.6-.97 2.79zm13.21-32.4 20.45 52.06h-7.49q-1.26 0-2.05-.63t-1.19-1.57l-3.89-10.62h-21.56l-3.89 10.62q-.29.83-1.11 1.52-.83.68-2.06.68h-7.56l20.49-52.06zm35.57 0v52.06h-9.72v-52.06z"/></svg>