<svg xmlns="http://www.w3.org/2000/svg" width="600" height="400" viewBox="0 0 600 400"><rect width="100%" height="100%" fill="#000000"/><path fill="#ffffff" d="M131.24 193.89h5.63q2.55 0 4.44-.64t3.12-1.76q1.22-1.12 1.82-2.66.61-1.54.61-3.39 0-3.68-2.43-5.66-2.43-1.97-7.42-1.97h-5.77zm16.69 7.5 12.12 17.89h-8.14q-2.31 0-3.35-1.81l-10.18-15.51q-.57-.87-1.26-1.24-.68-.37-2.02-.37h-3.86v18.93h-9.01v-48.44h14.78q4.92 0 8.46 1.02 3.53 1.02 5.79 2.87 2.26 1.84 3.33 4.4 1.08 2.56 1.08 5.64 0 2.45-.72 4.63t-2.08 3.95q-1.36 1.78-3.35 3.12t-4.54 2.11q.87.5 1.61 1.19.73.68 1.34 1.62m40.67-16.48h6.63l-18.73 43.82q-.37.87-.95 1.32-.59.45-1.79.45h-6.17l6.43-13.8-13.9-31.79h7.27q.97 0 1.53.47.55.47.82 1.07l7.3 17.82q.37.91.62 1.81.25.91.48 1.84.31-.93.61-1.86.3-.92.67-1.82l6.9-17.79q.27-.67.89-1.11.62-.43 1.39-.43m22.21 34.91q-4.49 0-6.89-2.53-2.39-2.53-2.39-6.99v-19.19h-3.52q-.67 0-1.14-.44-.47-.43-.47-1.31v-3.28l5.53-.9 1.74-9.38q.17-.67.64-1.04t1.2-.37h4.29v10.82h9.18v5.9h-9.18v18.62q0 1.61.79 2.51.79.91 2.16.91.77 0 1.29-.18.52-.19.9-.39.39-.2.69-.39.3-.18.6-.18.37 0 .61.18.23.19.5.56l2.48 4.02q-1.81 1.5-4.16 2.28-2.34.77-4.85.77m20-21.68h15.61q0-1.61-.45-3.03-.46-1.42-1.36-2.5-.91-1.07-2.3-1.69t-3.23-.62q-3.58 0-5.64 2.05-2.06 2.04-2.63 5.79m21.1 4.99h-21.27q.2 2.65.94 4.58.73 1.92 1.94 3.18 1.21 1.25 2.86 1.87 1.66.62 3.67.62t3.47-.47q1.46-.46 2.55-1.03 1.08-.57 1.91-1.04.82-.47 1.59-.47 1.04 0 1.54.77l2.38 3.01q-1.38 1.61-3.09 2.7-1.7 1.09-3.56 1.74-1.86.66-3.79.92-1.93.27-3.73.27-3.59 0-6.67-1.19t-5.36-3.51q-2.28-2.33-3.59-5.77-1.3-3.43-1.3-7.95 0-3.52 1.14-6.62t3.26-5.39q2.13-2.3 5.2-3.64 3.06-1.34 6.91-1.34 3.25 0 6 1.04t4.72 3.03q1.98 2 3.1 4.89 1.12 2.9 1.12 6.62 0 1.88-.4 2.53t-1.54.65m15.31-16.71.57 2.71q1.04-1.04 2.19-1.93 1.16-.88 2.45-1.5t2.76-.98q1.48-.35 3.22-.35 2.81 0 4.99.96 2.18.95 3.64 2.68 1.45 1.72 2.21 4.12.75 2.39.75 5.27v21.88h-8.27V197.4q0-3.14-1.44-4.87t-4.39-1.73q-2.15 0-4.02.98-1.88.97-3.55 2.64v24.86h-8.28v-34.37h5.06q1.61 0 2.11 1.51m40.94 25.82h9.11q2.51 0 4.22-.6t2.73-1.61q1.02-1 1.48-2.34.45-1.34.45-2.85 0-1.57-.5-2.83-.51-1.26-1.58-2.14-1.07-.89-2.76-1.36t-4.07-.47h-9.08zm7.67-34.43h-7.67v14h7.17q4.62 0 6.98-1.68 2.36-1.67 2.36-5.32 0-3.79-2.14-5.4-2.14-1.6-6.7-1.6m-16.68-6.97h16.68q4.76 0 8.14.9 3.38.91 5.54 2.58 2.17 1.68 3.17 4.06 1.01 2.37 1.01 5.36 0 1.7-.51 3.26-.5 1.56-1.56 2.92-1.05 1.35-2.68 2.46-1.62 1.1-3.86 1.88 9.98 2.24 9.98 10.78 0 3.08-1.17 5.7-1.18 2.61-3.42 4.5-2.25 1.9-5.53 2.97t-7.5 1.07h-18.29zm49.34 27.3h15.61q0-1.61-.45-3.03t-1.36-2.5q-.9-1.07-2.29-1.69t-3.23-.62q-3.59 0-5.65 2.05-2.06 2.04-2.63 5.79m21.11 4.99h-21.28q.21 2.65.94 4.58.74 1.92 1.95 3.18 1.2 1.25 2.86 1.87t3.67.62 3.47-.47q1.45-.46 2.54-1.03t1.91-1.04 1.59-.47q1.04 0 1.54.77l2.38 3.01q-1.37 1.61-3.08 2.7t-3.57 1.74q-1.86.66-3.78.92-1.93.27-3.74.27-3.58 0-6.67-1.19-3.08-1.19-5.36-3.51-2.27-2.33-3.58-5.77-1.31-3.43-1.31-7.95 0-3.52 1.14-6.62t3.27-5.39q2.13-2.3 5.19-3.64 3.07-1.34 6.92-1.34 3.25 0 6 1.04 2.74 1.04 4.72 3.03 1.98 2 3.1 4.89 1.12 2.9 1.12 6.62 0 1.88-.4 2.53t-1.54.65m15.31-16.71.57 2.71q1.03-1.04 2.19-1.93 1.16-.88 2.45-1.5t2.76-.98q1.47-.35 3.22-.35 2.81 0 4.99.96 2.17.95 3.63 2.68 1.46 1.72 2.21 4.12.76 2.39.76 5.27v21.88h-8.28V197.4q0-3.14-1.44-4.87t-4.39-1.73q-2.14 0-4.02.98-1.87.97-3.55 2.64v24.86h-8.27v-34.37h5.06q1.6 0 2.11 1.51m57.42 2.74-2.18 3.02q-.37.47-.72.74-.35.26-1.02.26-.64 0-1.24-.38-.61-.39-1.44-.87-.84-.49-2-.87-1.15-.39-2.86-.39-2.18 0-3.82.79t-2.73 2.26-1.63 3.57q-.53 2.09-.53 4.74 0 2.74.58 4.89.59 2.14 1.7 3.6 1.1 1.46 2.68 2.21 1.57.75 3.55.75 1.97 0 3.2-.48 1.22-.49 2.06-1.07.83-.59 1.45-1.08.62-.48 1.39-.48 1.01 0 1.51.77l2.38 3.01q-1.37 1.61-2.98 2.7t-3.33 1.74q-1.73.66-3.56.92-1.82.27-3.63.27-3.18 0-6-1.19-2.81-1.19-4.92-3.46-2.11-2.28-3.33-5.58-1.23-3.3-1.23-7.52 0-3.79 1.09-7.02t3.2-5.6q2.11-2.36 5.23-3.7 3.11-1.34 7.17-1.34 3.85 0 6.75 1.24 2.89 1.24 5.21 3.55m13.76-19.66v19.09q2.01-1.87 4.43-3.04 2.41-1.18 5.66-1.18 2.81 0 4.99.96 2.18.95 3.63 2.68 1.46 1.72 2.21 4.12.76 2.39.76 5.27v21.88h-8.28V197.4q0-3.14-1.44-4.87t-4.38-1.73q-2.15 0-4.02.98-1.88.97-3.56 2.64v24.86h-8.27V169.5z"/></svg>